<svg width="100" height="100" viewBox="0 0 100 100" xmlns="http://www.w3.org/2000/svg">
  <defs>
    <linearGradient id="g1" x1="0" y1="0" x2="1" y2="1">
      <stop offset="0" stop-color="#25A9FF"/>
      <stop offset="1" stop-color="#0F2D5C"/>
    </linearGradient>
  </defs>
  <circle cx="50" cy="50" r="48" fill="#0F2D5C"/>
  <!-- atom orbits -->
  <g fill="none" stroke="url(#g1)" stroke-width="2.2" opacity="0.9">
    <ellipse cx="50" cy="50" rx="34" ry="14" transform="rotate(0 50 50)"/>
    <ellipse cx="50" cy="50" rx="34" ry="14" transform="rotate(60 50 50)"/>
    <ellipse cx="50" cy="50" rx="34" ry="14" transform="rotate(120 50 50)"/>
  </g>
  <!-- book -->
  <path d="M28 62 Q50 54 72 62 V72 Q50 64 28 72 Z" fill="#FFFFFF"/>
  <path d="M50 54 V64" stroke="#0F2D5C" stroke-width="2"/>
  <!-- graduation cap -->
  <path d="M50 34 L74 44 L50 54 L26 44 Z" fill="#FF8A00"/>
  <rect x="48.5" y="53" width="3" height="10" rx="1.5" fill="#FF8A00"/>
  <circle cx="50" cy="44" r="3" fill="#0F2D5C"/>
</svg>
